<?xml version="1.0" standalone="no"?><!DOCTYPE svg PUBLIC "-//W3C//DTD SVG 1.1//EN" "http://www.w3.org/Graphics/SVG/1.1/DTD/svg11.dtd"><svg class="icon" height="512" viewBox="0 0 1024 1024" version="1.1" xmlns="http://www.w3.org/2000/svg"><path d="M480 352c-105.888 0-192 86.112-192 192s86.112 192 192 192 192-86.112 192-192-86.112-192-192-192z m0 320c-70.592 0-128-57.408-128-128s57.408-128 128-128 128 57.408 128 128-57.408 128-128 128z m96 160H160c-17.632 0-32-14.336-32-32V288c0-17.632 14.368-32 32-32h96c17.664 0 32-14.336 32-32s-14.336-32-32-32h-96c-52.928 0-96 43.072-96 96v512c0 52.928 43.072 96 96 96h416c17.696 0 32-14.304 32-32s-14.304-32-32-32z m-64-576h320c17.664 0 32 14.368 32 32v256c0 17.696 14.304 32 32 32s32-14.304 32-32V288c0-52.928-43.072-96-96-96H512c-17.664 0-32 14.336-32 32s14.336 32 32 32z m224 80a1.5 1.5 0 1 0 96 0 1.5 1.5 0 1 0-96 0zM320 160h128c17.696 0 32-14.304 32-32s-14.304-32-32-32H320c-17.696 0-32 14.304-32 32s14.304 32 32 32z m640 608h-96v-96c0-17.696-14.304-32-32-32s-32 14.304-32 32v96h-96c-17.696 0-32 14.304-32 32s14.304 32 32 32h96v96c0 17.696 14.304 32 32 32s32-14.304 32-32v-96h96c17.696 0 32-14.304 32-32s-14.304-32-32-32z" fill="#333333" /></svg>